<mxfile host="app.diagrams.net" modified="2023-07-02T14:07:07.241Z" agent="Mozilla/5.0 (Windows NT 10.0; Win64; x64; rv:109.0) Gecko/20100101 Firefox/115.0" etag="w2mK1e8vDhqlXasTEHqV" version="21.5.2" type="github">
  <diagram name="prosedur" id="k15jAyYDwGL_YBpCUJvA">
    <mxGraphModel dx="1210" dy="634" grid="1" gridSize="10" guides="1" tooltips="1" connect="1" arrows="1" fold="1" page="1" pageScale="1" pageWidth="850" pageHeight="1100" math="0" shadow="0">
      <root>
        <mxCell id="0" />
        <mxCell id="1" parent="0" />
        <mxCell id="BAe3vGqKPwnIPObpJoh3-3" value="" style="edgeStyle=orthogonalEdgeStyle;rounded=0;orthogonalLoop=1;jettySize=auto;html=1;" edge="1" parent="1" source="BAe3vGqKPwnIPObpJoh3-1" target="BAe3vGqKPwnIPObpJoh3-2">
          <mxGeometry relative="1" as="geometry" />
        </mxCell>
        <mxCell id="BAe3vGqKPwnIPObpJoh3-1" value="Analisis" style="rounded=0;whiteSpace=wrap;html=1;" vertex="1" parent="1">
          <mxGeometry x="120" y="100" width="120" height="60" as="geometry" />
        </mxCell>
        <mxCell id="BAe3vGqKPwnIPObpJoh3-5" value="" style="edgeStyle=orthogonalEdgeStyle;rounded=0;orthogonalLoop=1;jettySize=auto;html=1;" edge="1" parent="1" source="BAe3vGqKPwnIPObpJoh3-2" target="BAe3vGqKPwnIPObpJoh3-4">
          <mxGeometry relative="1" as="geometry" />
        </mxCell>
        <mxCell id="BAe3vGqKPwnIPObpJoh3-2" value="Desain" style="rounded=0;whiteSpace=wrap;html=1;" vertex="1" parent="1">
          <mxGeometry x="320" y="100" width="120" height="60" as="geometry" />
        </mxCell>
        <mxCell id="BAe3vGqKPwnIPObpJoh3-7" value="" style="edgeStyle=orthogonalEdgeStyle;rounded=0;orthogonalLoop=1;jettySize=auto;html=1;" edge="1" parent="1" source="BAe3vGqKPwnIPObpJoh3-4" target="BAe3vGqKPwnIPObpJoh3-6">
          <mxGeometry relative="1" as="geometry" />
        </mxCell>
        <mxCell id="BAe3vGqKPwnIPObpJoh3-4" value="Implementasi" style="rounded=0;whiteSpace=wrap;html=1;" vertex="1" parent="1">
          <mxGeometry x="520" y="100" width="120" height="60" as="geometry" />
        </mxCell>
        <mxCell id="BAe3vGqKPwnIPObpJoh3-9" value="" style="edgeStyle=orthogonalEdgeStyle;rounded=0;orthogonalLoop=1;jettySize=auto;html=1;" edge="1" parent="1" source="BAe3vGqKPwnIPObpJoh3-6" target="BAe3vGqKPwnIPObpJoh3-8">
          <mxGeometry relative="1" as="geometry" />
        </mxCell>
        <mxCell id="BAe3vGqKPwnIPObpJoh3-12" style="edgeStyle=orthogonalEdgeStyle;rounded=0;orthogonalLoop=1;jettySize=auto;html=1;entryX=1;entryY=0.5;entryDx=0;entryDy=0;" edge="1" parent="1" source="BAe3vGqKPwnIPObpJoh3-6" target="BAe3vGqKPwnIPObpJoh3-10">
          <mxGeometry relative="1" as="geometry" />
        </mxCell>
        <mxCell id="BAe3vGqKPwnIPObpJoh3-6" value="Pengujian" style="rounded=0;whiteSpace=wrap;html=1;" vertex="1" parent="1">
          <mxGeometry x="520" y="240" width="120" height="60" as="geometry" />
        </mxCell>
        <mxCell id="BAe3vGqKPwnIPObpJoh3-8" value="Pemeliharaan" style="rounded=0;whiteSpace=wrap;html=1;" vertex="1" parent="1">
          <mxGeometry x="120" y="240" width="120" height="60" as="geometry" />
        </mxCell>
        <mxCell id="BAe3vGqKPwnIPObpJoh3-10" value="Pembuatan&lt;br&gt;Laporan" style="rounded=0;whiteSpace=wrap;html=1;" vertex="1" parent="1">
          <mxGeometry x="320" y="320" width="120" height="60" as="geometry" />
        </mxCell>
      </root>
    </mxGraphModel>
  </diagram>
</mxfile>
